<svg width="166" height="156" xmlns="http://www.w3.org/2000/svg">
  <g transform="rotate(180 83.0934 77.92)" id="svg_1">
   <g id="svg_5" transform="matrix(6.66667 0 0 6.66667 0 0)">
    <path fill="#555C64" d="m0,11.711l10.95,10.966c0.748,0.699 2,0.699 2.701,0c0.777,-0.803 0.765,-2.002 0.064,-2.715l-0.037,0l-8.252,-8.251l8.247,-8.252c0.755,-0.751 0.755,-1.962 0.005,-2.713c-0.748,-0.746 -1.965,-0.746 -2.712,0" id="svg_6"/>
   </g>
   <g transform="matrix(6.66667 0 0 6.66667 0 0)" id="svg_7">
    <path fill="#555C64" d="m10.49999,11.711l10.95001,10.966c0.748,0.699 2,0.699 2.701,0c0.777,-0.803 0.765,-2.002 0.064,-2.715l-0.037,0l-8.252,-8.251l8.247,-8.252c0.755,-0.751 0.755,-1.962 0.005,-2.713c-0.748,-0.746 -1.965,-0.746 -2.712,0" id="svg_9"/>
   </g>
  </g>
</svg>