<svg width="166" height="156" xmlns="http://www.w3.org/2000/svg">
 <g>
   <g transform="matrix(6.66667 0 0 6.66667 0 0)" id="svg_5">
    <path id="svg_6" d="m0,11.711l10.949999,10.966c0.748001,0.698999 2,0.698999 2.701,0c0.777,-0.802999 0.765001,-2.002001 0.064001,-2.715l-0.036999,0l-8.252001,-8.250999l8.247,-8.252c0.754999,-0.751 0.754999,-1.962 0.005001,-2.713c-0.748001,-0.746 -1.965002,-0.746 -2.712002,0" fill="#555C64"/>
   </g>
   <g id="svg_7" transform="matrix(6.66667 0 0 6.66667 0 0)">
    <path id="svg_9" d="m10.499989,11.711l10.95001,10.966c0.747999,0.698999 2,0.698999 2.700998,0c0.777,-0.802999 0.765001,-2.002001 0.064001,-2.715l-0.037001,0l-8.251999,-8.250999l8.247,-8.252c0.754999,-0.751 0.754999,-1.962 0.004999,-2.713c-0.747999,-0.746 -1.965,-0.746 -2.712,0" fill="#555C64"/>
   </g>
 </g>
</svg>